<svg xmlns="http://www.w3.org/2000/svg" viewBox="0 0 64 64" fill="none">
  <rect width="64" height="64" rx="18" fill="#09090b" />
  <path
    d="M20 26c0-4.418 3.582-8 8-8 2.2 0 4.193.888 5.64 2.325A7.96 7.96 0 0 1 39.28 18c4.418 0 8 3.582 8 8 0 2.36-1.021 4.481-2.646 5.946C43.06 33.37 40.67 34.2 38.08 34.2H25.92c-2.59 0-4.98-.83-6.554-2.254A7.95 7.95 0 0 1 20 26Z"
    fill="#7c3aed"
  />
  <path
    d="M18.6 41.6a5.4 5.4 0 1 1 10.8 0 5.4 5.4 0 0 1-10.8 0Zm16 5.4a5.4 5.4 0 1 0 0-10.8 5.4 5.4 0 0 0 0 10.8Zm10.6-5.4a5.4 5.4 0 1 1-10.8 0 5.4 5.4 0 0 1 10.8 0Z"
    fill="#fafafa"
  />
</svg>
